<svg xmlns="http://www.w3.org/2000/svg" xmlns:xlink="http://www.w3.org/1999/xlink" width="500" zoomAndPan="magnify" viewBox="0 0 375 374.999991" height="500" preserveAspectRatio="xMidYMid meet" version="1.0"><defs><g/><clipPath id="70a255678e"><path d="M 218.230469 79.207031 L 299.980469 79.207031 L 299.980469 160.957031 L 218.230469 160.957031 Z M 218.230469 79.207031 " clip-rule="nonzero"/></clipPath></defs><rect x="-37.5" width="450" fill="#ffffff" y="-37.499999" height="449.999989" fill-opacity="1"/><rect x="-37.5" width="450" fill="#ffffff" y="-37.499999" height="449.999989" fill-opacity="1"/><g fill="#060644" fill-opacity="1"><g transform="translate(145.322866, 295.047828)"><g><path d="M 83.292969 -33.839844 C 83.292969 -15.175781 72.042969 -3.050781 47.796875 -3.050781 C 21.804688 -3.050781 11.078125 -27.472656 9.59375 -32.96875 L 2.179688 -20.933594 C 4.882812 -16.046875 17.183594 0 47.707031 0 C 78.148438 0 97.246094 -10.03125 97.246094 -35.324219 C 97.246094 -78.933594 19.535156 -62.273438 19.535156 -97.246094 C 19.535156 -115.738281 35.148438 -121.753906 47.183594 -121.753906 C 78.933594 -121.753906 83.816406 -96.722656 83.816406 -96.722656 L 87.304688 -115.910156 C 87.304688 -115.910156 70.382812 -124.984375 48.492188 -124.984375 C 13.429688 -124.984375 8.460938 -102.042969 8.460938 -97.160156 C 8.460938 -52.15625 83.292969 -70.296875 83.292969 -33.839844 Z M 83.292969 -33.839844 "/></g></g></g><g fill="#060644" fill-opacity="1"><g transform="translate(102.406375, 212.02831)"><g><path d="M 16.484375 -62.449219 L 84.777344 -62.449219 L 84.777344 -12.210938 C 84.777344 -1.832031 81.113281 -0.0859375 81.113281 -0.0859375 L 98.992188 -0.0859375 C 98.992188 -0.0859375 95.328125 -1.832031 95.328125 -12.210938 L 95.328125 -113.558594 C 95.328125 -123.9375 98.992188 -125.070312 98.992188 -125.070312 L 81.113281 -125.070312 C 81.113281 -125.070312 84.777344 -123.847656 84.777344 -113.46875 L 84.777344 -64.453125 L 16.484375 -64.453125 L 16.484375 -113.558594 C 16.484375 -123.9375 20.058594 -125.070312 20.058594 -125.070312 L 2.179688 -125.070312 C 2.179688 -125.070312 5.84375 -123.847656 5.84375 -113.46875 L 5.84375 -12.210938 C 5.84375 -1.832031 2.179688 -0.0859375 2.179688 -0.0859375 L 20.058594 -0.0859375 C 20.058594 -0.0859375 16.484375 -1.832031 16.484375 -12.210938 Z M 16.484375 -62.449219 "/></g></g></g><g clip-path="url(#70a255678e)"><path fill="#060644" d="M 267.519531 124.78125 C 273.167969 121.085938 282.902344 120.605469 299.980469 120.082031 C 282.902344 119.558594 273.167969 119.078125 267.519531 115.382812 C 269.203125 111.585938 272.828125 107.183594 278.40625 100.78125 C 272.003906 106.355469 267.601562 109.984375 263.804688 111.667969 C 260.109375 106.019531 259.628906 96.285156 259.105469 79.207031 C 258.582031 96.285156 258.097656 106.019531 254.402344 111.667969 C 250.605469 109.984375 246.207031 106.355469 239.804688 100.78125 C 245.378906 107.183594 249.007812 111.585938 250.6875 115.382812 C 245.042969 119.078125 235.308594 119.558594 218.230469 120.082031 C 235.308594 120.605469 245.042969 121.085938 250.6875 124.78125 C 249.007812 128.582031 245.378906 132.980469 239.804688 139.382812 C 246.207031 133.808594 250.605469 130.179688 254.402344 128.496094 C 258.097656 134.144531 258.582031 143.878906 259.105469 160.957031 C 259.628906 143.878906 260.109375 134.144531 263.804688 128.496094 C 267.601562 130.179688 272.003906 133.808594 278.40625 139.382812 C 272.828125 132.980469 269.203125 128.578125 267.519531 124.78125 Z M 267.519531 124.78125 " fill-opacity="1" fill-rule="nonzero"/></g></svg>